<svg width="28" height="31" viewBox="0 0 28 31" fill="none" xmlns="http://www.w3.org/2000/svg">
<g clip-path="url(#clip0_10_32)">
<path d="M19 13H17C17 10.24 14.76 8 12 8C9.24 8 7 10.24 7 13H5C3.9 13 3 13.9 3 15V27C3 28.1 3.9 29 5 29H19C20.1 29 21 28.1 21 27V15C21 13.9 20.1 13 19 13ZM12 10C13.66 10 15 11.34 15 13H9C9 11.34 10.34 10 12 10ZM19 27H5V15H19V27ZM12 19C10.34 19 9 17.66 9 16H7C7 18.76 9.24 21 12 21C14.76 21 17 18.76 17 16H15C15 17.66 13.66 19 12 19Z" fill="#2A2A2A"/>
</g>
<rect x="12.5" y="0.5" width="15" height="15" rx="7.5" fill="#7FAD39"/>
<path d="M20.0582 11.14C21.6182 11.14 22.6182 10.22 22.6182 8.87C22.6182 7.79 21.9682 7.3 21.3882 7.15C21.7582 6.99 22.2782 6.49 22.2782 5.68C22.2782 4.62 21.3282 3.73 19.9782 3.73C18.4982 3.73 17.5282 4.58 17.5282 6.1L19.1282 6.26V6.18C19.1282 5.52 19.4582 5.12 20.0182 5.12C20.4882 5.12 20.8082 5.4 20.8082 5.83C20.8082 6.33 20.4582 6.66 19.9782 6.66H19.7682V7.86H19.9982C20.2882 7.86 21.0082 7.95 21.0082 8.77C21.0082 9.33 20.6782 9.74 20.0182 9.74C19.2482 9.74 19.0082 9.21 18.9882 8.53H17.3682C17.3682 10.23 18.3182 11.14 20.0582 11.14Z" fill="white"/>
<rect x="12.5" y="0.5" width="15" height="15" rx="7.5" stroke="white"/>
<defs>
<clipPath id="clip0_10_32">
<rect width="24" height="24" fill="white" transform="translate(0 7)"/>
</clipPath>
</defs>
</svg>
