<svg width="50" height="50" viewBox="0 0 50 50" fill="none" xmlns="http://www.w3.org/2000/svg">
<rect width="50" height="50" rx="25" fill="#F5F5F5"/>
<g clip-path="url(#clip0_10_37)">
<path d="M28 25H30C30 22.24 27.76 20 25 20V22C26.66 22 28 23.34 28 25ZM32 25H34C34 20.03 29.97 16 25 16V18C28.87 18 32 21.13 32 25ZM33 28.5C31.75 28.5 30.55 28.3 29.43 27.93C29.33 27.9 29.22 27.88 29.12 27.88C28.86 27.88 28.61 27.98 28.41 28.17L26.21 30.37C23.38 28.93 21.06 26.62 19.62 23.78L21.82 21.57C22.1 21.31 22.18 20.92 22.07 20.57C21.7 19.45 21.5 18.25 21.5 17C21.5 16.45 21.05 16 20.5 16H17C16.45 16 16 16.45 16 17C16 26.39 23.61 34 33 34C33.55 34 34 33.55 34 33V29.5C34 28.95 33.55 28.5 33 28.5ZM18.03 18H19.53C19.6 18.88 19.75 19.75 19.98 20.58L18.78 21.79C18.38 20.58 18.12 19.32 18.03 18ZM32 31.97C30.68 31.88 29.4 31.62 28.2 31.21L29.4 30.01C30.25 30.25 31.12 30.4 32 30.46V31.97Z" fill="#2A2A2A"/>
</g>
<defs>
<clipPath id="clip0_10_37">
<rect width="24" height="24" fill="white" transform="translate(13 13)"/>
</clipPath>
</defs>
</svg>
