<svg width="43" height="26" viewBox="0 0 43 26" fill="none" xmlns="http://www.w3.org/2000/svg">
<rect width="43" height="25.0498" rx="4" fill="white"/>
<path fill-rule="evenodd" clip-rule="evenodd" d="M36.2952 14.4728H34.7759C34.6242 14.4728 34.5235 14.4783 34.4386 14.5338C34.3506 14.5885 34.3168 14.6696 34.3168 14.7767C34.3168 14.9041 34.391 14.9908 34.4991 15.0282C34.587 15.0579 34.6815 15.0665 34.8203 15.0665L35.2721 15.0782C35.728 15.0891 36.0323 15.165 36.2179 15.35C36.2516 15.3758 36.2719 15.4047 36.2952 15.4336V14.4728ZM36.2952 16.6989C36.0927 16.9855 35.6981 17.1308 35.164 17.1308H33.5542V16.4068H35.1575C35.3165 16.4068 35.4278 16.3865 35.4948 16.3232C35.5529 16.2709 35.5934 16.1951 35.5934 16.1029C35.5934 16.0046 35.5529 15.9265 35.4915 15.8796C35.4311 15.8281 35.343 15.8047 35.1979 15.8047C34.4152 15.7789 33.4387 15.8281 33.4387 14.7596C33.4387 14.2698 33.76 13.7543 34.6347 13.7543H36.2951V13.0825H34.7524C34.2868 13.0825 33.9487 13.1904 33.7092 13.3582V13.0825H31.4274C31.0625 13.0825 30.6341 13.1701 30.4316 13.3582V13.0825H26.3568V13.3582C26.0326 13.1318 25.4854 13.0825 25.2328 13.0825H22.5451V13.3582C22.2886 13.1177 21.718 13.0825 21.3703 13.0825H18.3623L17.6739 13.8036L17.0292 13.0825H12.5359V17.794H16.9447L17.6539 17.0615L18.3221 17.794L21.0397 17.7963V16.688H21.3069C21.6674 16.6934 22.0927 16.6793 22.4679 16.5223V17.7939H24.7094V16.5659H24.8175C24.9556 16.5659 24.9691 16.5714 24.9691 16.7049V17.7937H31.7785C32.2108 17.7937 32.6627 17.6866 32.9129 17.4923V17.7937H35.0728C35.5223 17.7937 35.9612 17.7328 36.2952 17.5766V16.6989ZM32.9701 15.35C33.1324 15.5126 33.2194 15.7179 33.2194 16.0654C33.2194 16.7918 32.7505 17.1308 31.9099 17.1308H30.2863V16.4068H31.9034C32.0615 16.4068 32.1736 16.3865 32.2439 16.3232C32.3012 16.2709 32.3423 16.1951 32.3423 16.1029C32.3423 16.0046 32.2978 15.9265 32.2406 15.8796C32.1769 15.8281 32.0889 15.8047 31.9438 15.8047C31.1642 15.7789 30.188 15.8281 30.188 14.7596C30.188 14.2699 30.5059 13.7543 31.3798 13.7543H33.0509V14.473H31.5218C31.3702 14.473 31.2716 14.4785 31.1878 14.534C31.0965 14.5887 31.0626 14.6698 31.0626 14.7769C31.0626 14.9043 31.1401 14.991 31.245 15.0284C31.3329 15.0581 31.4274 15.0667 31.5694 15.0667L32.0181 15.0784C32.4706 15.0891 32.7813 15.1649 32.9701 15.35ZM25.4485 15.1415C25.337 15.2055 25.1991 15.211 25.0369 15.211H24.0242V14.4526H25.0506C25.1991 14.4526 25.3476 14.4557 25.4485 14.5136C25.5565 14.5683 25.6211 14.6729 25.6211 14.8173C25.6211 14.9618 25.5565 15.0782 25.4485 15.1415ZM25.9519 15.5617C26.1374 15.628 26.2891 15.7468 26.3602 15.8451C26.4779 16.01 26.495 16.1638 26.4983 16.4615V17.1308H25.6615V16.7084C25.6615 16.5052 25.6817 16.2045 25.5267 16.0475C25.4049 15.9265 25.2193 15.8976 24.9152 15.8976H24.0244V17.1308H23.1868V13.7542H25.1112C25.5333 13.7542 25.8406 13.7723 26.1142 13.9136C26.3773 14.0674 26.5427 14.2782 26.5427 14.6634C26.5426 15.2023 26.1713 15.4774 25.9519 15.5617ZM27.0049 13.7542H29.787V14.4525H27.835V15.0664H29.7393V15.7553H27.835V16.4271L29.787 16.4302V17.1308H27.0049V13.7542V13.7542ZM21.3809 15.3125H20.3037V14.4526H21.3906C21.6915 14.4526 21.9004 14.5713 21.9004 14.8666C21.9004 15.1586 21.7012 15.3125 21.3809 15.3125ZM19.4734 16.8237L18.1936 15.4483L19.4734 14.1166V16.8237ZM16.1683 16.4271H14.1189V15.7553H15.9489V15.0664H14.1189V14.4525H16.2087L17.1205 15.4365L16.1683 16.4271ZM22.7953 14.8666C22.7953 15.8046 22.0723 15.9983 21.3437 15.9983H20.3036V17.1308H18.6835L17.6571 16.013L16.5904 17.1308H13.2886V13.7542H16.6412L17.6667 14.861L18.727 13.7542H21.3905C22.052 13.7542 22.7953 13.9315 22.7953 14.8666Z" fill="#0072CE"/>
<path fill-rule="evenodd" clip-rule="evenodd" d="M9.31165 9.86313L8.74111 8.5174L8.17383 9.86313H9.31165ZM21.8803 9.32725C21.7658 9.39455 21.6303 9.39679 21.468 9.39679H20.4553V8.647H21.4818C21.627 8.647 21.7786 8.65332 21.8771 8.70789C21.9852 8.75707 22.0521 8.86174 22.0521 9.00632C22.0521 9.15385 21.9885 9.27257 21.8803 9.32725ZM29.1042 9.86313L28.5274 8.5174L27.9537 9.86313H29.1042ZM15.6383 11.3198H14.7838L14.7806 8.67589L13.5719 11.3198H12.84L11.6282 8.67355V11.3198H9.93282L9.61252 10.5668H7.87696L7.55341 11.3198H6.64807L8.14076 7.944H9.37922L10.7969 11.1402V7.944H12.1574L13.2483 10.2341L14.2504 7.944H15.6382V11.3198H15.6383ZM19.0442 11.3198H16.2595V7.944H19.0442V8.64698H17.0931V9.25546H18.9974V9.94744H17.0931V10.6216H19.0442V11.3198ZM22.9703 8.85317C22.9703 9.39139 22.5992 9.66947 22.383 9.75296C22.5654 9.82017 22.7212 9.93889 22.7953 10.0372C22.913 10.2052 22.9333 10.3551 22.9333 10.6566V11.3198H22.0926L22.0894 10.8941C22.0894 10.6909 22.1095 10.3988 21.9578 10.2364C21.836 10.1177 21.6504 10.0919 21.3503 10.0919H20.4554V11.3198H19.6219V7.944H21.5392C21.9652 7.944 22.2791 7.9549 22.5485 8.10569C22.8122 8.25649 22.9703 8.47663 22.9703 8.85317ZM24.3043 11.3198H23.4537V7.944H24.3043V11.3198ZM34.1716 11.3198H32.9904L31.4104 8.78606V11.3198H29.7128L29.3884 10.5668H27.6568L27.3421 11.3198H26.3667C25.9615 11.3198 25.4485 11.233 25.158 10.9464C24.8651 10.6598 24.7126 10.2715 24.7126 9.65766C24.7126 9.157 24.8037 8.69931 25.162 8.33764C25.4315 8.06822 25.8535 7.944 26.4279 7.944H27.2349V8.66734H26.4449C26.1407 8.66734 25.9689 8.71112 25.8034 8.86732C25.6613 9.00946 25.5638 9.27817 25.5638 9.632C25.5638 9.99367 25.6381 10.2544 25.793 10.4248C25.9213 10.5584 26.1545 10.5989 26.374 10.5989H26.7483L27.9231 7.9441H29.1721L30.5834 11.1371V7.9441H31.8526L33.3178 10.2952V7.9441H34.1716V11.3198ZM6.63841 11.9829H8.06263L8.38377 11.2331H9.10271L9.42301 11.9829H12.2253V11.4096L12.4754 11.9853H13.9301L14.1803 11.4011V11.9829H21.1444L21.1412 10.7521H21.2759C21.3703 10.7552 21.3978 10.7637 21.3978 10.9145V11.9829H24.9997V11.6964C25.2902 11.847 25.7421 11.9829 26.3367 11.9829H27.8521L28.1763 11.2331H28.8953L29.2124 11.9829H32.1325V11.2706L32.5747 11.9829H34.9147V7.27466H32.5989V7.8307L32.2746 7.27466H29.8983V7.8307L29.6006 7.27466H26.3908C25.8535 7.27466 25.3812 7.34726 24.9997 7.54958V7.27466H22.7847V7.54958C22.5419 7.34105 22.2111 7.27466 21.8433 7.27466H13.751L13.208 8.49071L12.6504 7.27466H10.1016V7.8307L9.82156 7.27466H7.64778L6.63831 9.5132V11.9829H6.63841Z" fill="#0072CE"/>
</svg>
